<?xml version="1.0" encoding="UTF-8" standalone="no"?>
<!DOCTYPE svg PUBLIC "-//W3C//DTD SVG 1.1//EN" "http://www.w3.org/Graphics/SVG/1.1/DTD/svg11.dtd">
<svg version="1.1" xmlns="http://www.w3.org/2000/svg" xmlns:xlink="http://www.w3.org/1999/xlink" preserveAspectRatio="xMidYMid meet" viewBox="0 0 640 640" width="640" height="640"><defs><path d="M128.75 270.38C117 258.63 117 239.63 128.75 228C131.57 225.18 154.18 202.58 157 199.75C168.75 188 187.75 188 199.38 199.75C207.41 207.78 247.58 247.95 319.88 320.25C392.17 247.95 432.34 207.78 440.38 199.75C452.13 188 471.13 188 482.75 199.75C485.58 202.58 508.18 225.18 511 228C522.75 239.75 522.75 258.75 511 270.38C494 287.38 358 423.38 341 440.38C329.5 452.13 310.5 452.13 298.75 440.38C264.75 406.38 145.75 287.38 128.75 270.38Z" id="a4qOU0xO4C"></path></defs><g><g><g><use xlink:href="#a4qOU0xO4C" opacity="1" fill="#ededed" fill-opacity="1"></use><g><use xlink:href="#a4qOU0xO4C" opacity="1" fill-opacity="0" stroke="#000000" stroke-width="1" stroke-opacity="0"></use></g></g></g></g></svg>