<?xml version="1.0" encoding="UTF-8" standalone="no"?>
<!DOCTYPE svg PUBLIC "-//W3C//DTD SVG 1.1//EN" "http://www.w3.org/Graphics/SVG/1.1/DTD/svg11.dtd">
<svg version="1.1" xmlns="http://www.w3.org/2000/svg" xmlns:xlink="http://www.w3.org/1999/xlink" preserveAspectRatio="xMidYMid meet" viewBox="0 0 640 640" width="640" height="640"><defs><path d="M511.25 369.63C523 381.37 523 400.38 511.25 412C508.43 414.82 485.83 437.43 483 440.25C471.25 452 452.25 452 440.63 440.25C432.58 432.23 392.38 392.1 320 319.88C247.7 392.17 207.53 432.34 199.5 440.38C187.75 452.13 168.75 452.13 157.13 440.38C154.29 437.55 131.59 414.95 128.75 412.13C117 400.38 117 381.37 128.75 369.75C145.75 352.75 281.75 216.75 298.75 199.75C310.5 187.88 329.5 187.88 341.25 199.63C375.25 233.63 494.25 352.63 511.25 369.63Z" id="a2UTcP6axH"></path></defs><g><g><g><use xlink:href="#a2UTcP6axH" opacity="1" fill="#ededed" fill-opacity="1"></use><g><use xlink:href="#a2UTcP6axH" opacity="1" fill-opacity="0" stroke="#000000" stroke-width="1" stroke-opacity="0"></use></g></g></g></g></svg>