<?xml version="1.0" encoding="UTF-8" standalone="no"?>
<!DOCTYPE svg PUBLIC "-//W3C//DTD SVG 1.1//EN" "http://www.w3.org/Graphics/SVG/1.1/DTD/svg11.dtd">
<svg version="1.1" xmlns="http://www.w3.org/2000/svg" xmlns:xlink="http://www.w3.org/1999/xlink" preserveAspectRatio="xMidYMid meet" viewBox="0 0 640 640" width="640" height="640"><defs><path d="M588.12 254.85C627.17 404.32 539.8 557.69 392.97 597.44C246.14 637.19 95.46 548.25 56.41 398.79C17.37 249.33 104.74 95.96 251.57 56.21C398.39 16.46 549.08 105.39 588.12 254.85" id="e1nnQsccu3"></path><path d="M325.82 64.24C183.27 63.6 65.7 180.88 63.74 325.66C61.78 470.46 176.17 588.78 318.72 589.42C461.28 590.06 578.85 472.78 580.81 327.98C582.76 183.19 468.38 64.88 325.82 64.24M318.26 623.65C157.12 622.93 27.82 489.18 30.03 325.51C32.24 161.84 165.14 29.28 326.28 30C487.43 30.72 616.72 164.46 614.51 328.13C612.3 491.8 479.4 624.38 318.26 623.65" id="a4yRDZDQ4X"></path><path d="M322.27 541.36C206.06 541.36 111.51 445.12 111.51 326.82C111.51 317.36 119.04 309.68 128.34 309.68C137.64 309.68 145.18 317.36 145.18 326.82C145.18 426.22 224.62 507.09 322.27 507.09C419.92 507.09 499.36 426.22 499.36 326.82C499.36 317.36 506.9 309.68 516.2 309.68C525.5 309.68 533.04 317.36 533.04 326.82C533.04 445.12 438.48 541.36 322.27 541.36" id="cBScpF3RV"></path><path d="M283.01 263.33C283.01 290.16 261.64 311.9 235.29 311.9C208.92 311.9 187.56 290.16 187.56 263.33C187.56 236.49 208.92 214.75 235.29 214.75C261.64 214.75 283.01 236.49 283.01 263.33" id="b1pahRmVsn"></path><path d="M456.98 263.33C456.98 290.16 435.61 311.9 409.26 311.9C382.89 311.9 361.53 290.16 361.53 263.33C361.53 236.49 382.89 214.75 409.26 214.75C435.61 214.75 456.98 236.49 456.98 263.33" id="a5O9YMGFn"></path></defs><g><g><g></g><g><use xlink:href="#a4yRDZDQ4X" opacity="1" fill="#414042" fill-opacity="1"></use></g><g><use xlink:href="#cBScpF3RV" opacity="1" fill="#414042" fill-opacity="1"></use></g><g><use xlink:href="#b1pahRmVsn" opacity="1" fill="#414042" fill-opacity="1"></use></g><g><use xlink:href="#a5O9YMGFn" opacity="1" fill="#414042" fill-opacity="1"></use></g></g></g></svg>