<?xml version="1.0" encoding="UTF-8" standalone="no"?>
<!DOCTYPE svg PUBLIC "-//W3C//DTD SVG 1.1//EN" "http://www.w3.org/Graphics/SVG/1.1/DTD/svg11.dtd">
<svg version="1.1" xmlns="http://www.w3.org/2000/svg" xmlns:xlink="http://www.w3.org/1999/xlink" preserveAspectRatio="xMidYMid meet" viewBox="0 0 640 640" width="640" height="640"><defs><path d="M572.39 601.89L572.38 602.53L572.35 603.16L572.3 603.78L572.24 604.38L572.15 604.96L572.05 605.53L571.92 606.07L571.78 606.61L571.62 607.12L571.43 607.62L571.23 608.11L571.01 608.57L570.77 609.02L570.52 609.46L570.24 609.88L569.94 610.28L569.63 610.66L569.29 611.03L568.94 611.39L568.56 611.72L568.17 612.04L567.76 612.34L567.33 612.63L566.88 612.9L566.41 613.16L565.93 613.39L565.42 613.61L564.89 613.82L564.35 614.01L563.78 614.18L563.2 614.34L562.6 614.48L561.98 614.6L561.33 614.7L560.68 614.8L560 614.87L559.3 614.93L558.58 614.97L557.84 614.99L557.09 615L82.91 615L82.88 615L82.8 615L82.67 614.99L82.48 614.99L82.25 614.97L81.98 614.96L81.67 614.93L81.32 614.89L80.94 614.85L80.52 614.79L80.08 614.73L79.61 614.65L79.11 614.55L78.6 614.44L78.07 614.31L77.53 614.16L76.97 613.99L76.4 613.8L75.83 613.59L75.26 613.36L74.69 613.1L74.12 612.81L73.55 612.5L73 612.16L72.45 611.79L71.92 611.39L71.41 610.96L70.92 610.49L70.45 609.99L70 609.46L69.59 608.88L69.2 608.27L68.85 607.62L68.54 606.93L68.27 606.2L68.04 605.42L67.86 604.6L67.72 603.73L67.64 602.82L67.61 601.86L67.61 38.11L67.64 37.15L67.72 36.24L67.86 35.38L68.04 34.56L68.27 33.79L68.54 33.05L68.85 32.36L69.2 31.71L69.59 31.1L70 30.53L70.45 30L70.92 29.5L71.41 29.03L71.92 28.6L72.45 28.2L73 27.83L73.55 27.49L74.12 27.18L74.69 26.9L75.26 26.64L75.83 26.41L76.4 26.2L76.97 26.01L77.53 25.84L78.07 25.69L78.6 25.56L79.11 25.45L79.61 25.35L80.08 25.27L80.52 25.2L80.94 25.15L81.32 25.1L81.67 25.07L81.98 25.04L82.25 25.03L82.48 25.01L82.67 25.01L82.8 25L82.88 25L82.91 25L434.71 25L572.39 143L572.39 601.89ZM99.16 588.18L540.84 588.18L540.84 159.09L446.2 159.09L446.14 159.09L445.97 159.09L445.69 159.08L445.31 159.06L444.84 159.04L444.28 159L443.63 158.95L442.91 158.88L442.12 158.79L441.27 158.67L440.35 158.53L439.38 158.37L438.36 158.17L437.31 157.94L436.21 157.68L435.09 157.37L433.94 157.03L432.78 156.65L431.6 156.22L430.42 155.74L429.24 155.21L428.06 154.63L426.9 153.99L425.75 153.3L424.63 152.54L423.54 151.73L422.48 150.84L421.46 149.89L420.49 148.87L419.58 147.78L418.72 146.61L417.93 145.36L417.21 144.03L416.56 142.62L416 141.12L415.53 139.54L415.15 137.87L414.87 136.1L414.7 134.23L414.65 132.27L414.65 51.82L99.16 51.82L99.16 588.18ZM162.26 534.55L162.26 507.73L477.74 507.73L477.74 534.55L162.26 534.55ZM162.26 454.09L162.26 427.27L477.74 427.27L477.74 454.09L162.26 454.09ZM162.26 373.64L162.26 346.82L477.74 346.82L477.74 373.64L162.26 373.64ZM162.26 293.18L162.26 266.36L477.74 266.36L477.74 293.18L162.26 293.18ZM162.26 212.73L162.26 185.91L477.74 185.91L477.74 212.73L162.26 212.73ZM162.26 132.27L162.26 105.45L351.55 105.45L351.55 132.27L162.26 132.27Z" id="a5kW4Z5vq"></path></defs><g><g><g><use xlink:href="#a5kW4Z5vq" opacity="1" fill="#000000" fill-opacity="1"></use></g></g></g></svg>