<?xml version="1.0" encoding="UTF-8" standalone="no"?>
<!DOCTYPE svg PUBLIC "-//W3C//DTD SVG 1.1//EN" "http://www.w3.org/Graphics/SVG/1.1/DTD/svg11.dtd">
<svg version="1.1" xmlns="http://www.w3.org/2000/svg" xmlns:xlink="http://www.w3.org/1999/xlink" preserveAspectRatio="xMidYMid meet" viewBox="0 0 640 640" width="640" height="640"><defs><path d="M360.26 20C208.7 20 124.5 20 107.66 20C90.86 20 77.35 32.54 77.35 48.13C77.35 102.5 77.35 537.5 77.35 591.87C77.35 607.46 90.86 620 107.66 620C150.1 620 489.6 620 532.03 620C548.83 620 562.35 607.46 562.35 591.87C562.35 566.25 562.35 438.12 562.35 207.5C459.28 207.5 402.03 207.5 390.58 207.5C373.9 207.5 360.26 194.84 360.26 179.37C360.26 158.13 360.26 105 360.26 20ZM562.35 170L400.68 170L400.68 20C405.3 20 407.87 20 408.38 20C416.47 20 424.17 22.93 429.86 28.2C442.22 39.69 541.14 131.56 553.5 143.05C559.19 148.32 562.35 155.47 562.35 162.85C562.35 163.8 562.35 166.19 562.35 170Z" id="aZTHNOho9"></path></defs><g><g><g><use xlink:href="#aZTHNOho9" opacity="1" fill="#2c5282" fill-opacity="1"></use><g><use xlink:href="#aZTHNOho9" opacity="1" fill-opacity="0" stroke="#000000" stroke-width="1" stroke-opacity="0"></use></g></g></g></g></svg>