<?xml version="1.0" encoding="UTF-8" standalone="no"?>
<!DOCTYPE svg PUBLIC "-//W3C//DTD SVG 1.1//EN" "http://www.w3.org/Graphics/SVG/1.1/DTD/svg11.dtd">
<svg version="1.1" xmlns="http://www.w3.org/2000/svg" xmlns:xlink="http://www.w3.org/1999/xlink" preserveAspectRatio="xMidYMid meet" viewBox="0 0 640 640" width="640" height="640"><defs><path d="M10 320C10 491.25 148.75 630 320 630C491.25 630 630 491.25 630 320C630 148.75 491.25 10 320 10C148.75 10 10 148.75 10 320ZM460 260C460 282.13 442.13 300 420 300C397.88 300 380 282.13 380 260C380 237.88 397.88 220 420 220C442.13 220 460 237.88 460 260ZM260 260C260 282.13 242.13 300 220 300C197.88 300 180 282.13 180 260C180 237.88 197.88 220 220 220C242.13 220 260 237.88 260 260ZM140.25 423.38C137.75 408.63 151.87 396.37 166.13 401C203.88 413.13 260 420 320 420C380 420 436.13 413.13 473.88 401C488 396.38 502.13 408.63 499.75 423.38C488.13 492.13 395.75 540 320 540C244.25 540 151.88 492.13 140.25 423.38Z" id="fQ9p5RFBy"></path></defs><g><g><g><use xlink:href="#fQ9p5RFBy" opacity="1" fill="#2c5282" fill-opacity="1"></use><g><use xlink:href="#fQ9p5RFBy" opacity="1" fill-opacity="0" stroke="#000000" stroke-width="1" stroke-opacity="0"></use></g></g></g></g></svg>