<?xml version="1.0" encoding="UTF-8" standalone="no"?>
<!DOCTYPE svg PUBLIC "-//W3C//DTD SVG 1.1//EN" "http://www.w3.org/Graphics/SVG/1.1/DTD/svg11.dtd">
<svg version="1.1" xmlns="http://www.w3.org/2000/svg" xmlns:xlink="http://www.w3.org/1999/xlink" preserveAspectRatio="xMidYMid meet" viewBox="0 0 640 640" width="640" height="640"><defs><path d="M15.63 338.25C-7 351.25 -4.13 382.75 18.38 392.25C27.23 395.97 71.53 414.55 151.25 448C366.73 258.1 486.43 152.6 510.38 131.5C517.25 125.37 527 134.75 521.13 141.87C501.05 166.33 400.67 288.62 220 508.75C220 569.13 220 602.67 220 609.38C220 638.88 255.63 650.5 273.13 629.13C278.42 622.68 304.88 590.47 352.5 532.5C445.95 571.65 497.87 593.4 508.25 597.75C526 605.25 546.25 594.13 549.5 575C558.5 521 630.5 89 639.5 35C643.75 9.75 616.63 -8.5 595 4C479.13 70.85 73.56 304.83 15.63 338.25Z" id="a1KBpV8s6F"></path></defs><g><g><g><use xlink:href="#a1KBpV8s6F" opacity="1" fill="#ededed" fill-opacity="1"></use><g><use xlink:href="#a1KBpV8s6F" opacity="1" fill-opacity="0" stroke="#000000" stroke-width="1" stroke-opacity="0"></use></g></g></g></g></svg>